<svg width="13" height="12" viewBox="0 0 13 12" fill="none" xmlns="http://www.w3.org/2000/svg">
<path fill-rule="evenodd" clip-rule="evenodd" d="M4.16407 0.593733L3.25 2H2.6C1.16406 2 0 3.19391 0 4.66667V9.33333C0 10.8061 1.16406 12 2.6 12H10.4C11.8359 12 13 10.8061 13 9.33333V4.66667C13 3.19391 11.8359 2 10.4 2H9.75L8.83593 0.593733C8.59482 0.222802 8.18892 0 7.75426 0H5.24574C4.81108 0 4.40518 0.222801 4.16407 0.593733ZM8.45 7C8.45 8.10457 7.57696 9 6.5 9C5.42304 9 4.55 8.10457 4.55 7C4.55 5.89543 5.42304 5 6.5 5C7.57696 5 8.45 5.89543 8.45 7ZM6.5 2.66667C6.85898 2.66667 7.15 2.36819 7.15 2C7.15 1.63181 6.85898 1.33333 6.5 1.33333C6.14101 1.33333 5.85 1.63181 5.85 2C5.85 2.36819 6.14101 2.66667 6.5 2.66667Z" fill="white"/>
</svg>
