<svg width="49" height="48" viewBox="0 0 49 48" fill="none" xmlns="http://www.w3.org/2000/svg">
<circle cx="24.5687" cy="24.069" r="18.2592" fill="white"/>
<path d="M24.4996 0C11.2451 0 0.5 10.7455 0.5 24C0.5 37.2541 11.2451 48.0008 24.4996 48.0008C37.7541 48.0008 48.5 37.2545 48.5 24C48.4996 10.7455 37.7541 0 24.4996 0ZM32.6959 15.3522C32.6959 15.4623 32.6521 15.5678 32.5743 15.6456C32.4965 15.7235 32.3909 15.7672 32.2809 15.7672H26.4384V18.9074H32.2805C32.3905 18.9074 32.4961 18.9511 32.5739 19.0289C32.6517 19.1067 32.6955 19.2123 32.6955 19.3223V25.164C32.6955 25.2741 32.6517 25.3796 32.5739 25.4575C32.4961 25.5353 32.3905 25.579 32.2805 25.579H26.8534V38.3986C26.8534 38.5086 26.8096 38.6142 26.7318 38.692C26.654 38.7698 26.5484 38.8136 26.4384 38.8136H20.9171C20.807 38.8136 20.7014 38.7698 20.6236 38.692C20.5458 38.6142 20.5021 38.5086 20.5021 38.3986V25.5794H16.7187C16.6086 25.5794 16.5031 25.5357 16.4253 25.4579C16.3474 25.38 16.3037 25.2745 16.3037 25.1644V19.3228C16.3037 19.2127 16.3474 19.1071 16.4253 19.0293C16.5031 18.9515 16.6086 18.9078 16.7187 18.9078H20.5021V16.5391C20.5021 16.505 20.5062 16.4722 20.5137 16.4407C20.517 13.0665 21.2387 9.20635 26.7666 9.18892C26.7787 9.18809 26.7915 9.18726 26.804 9.18726H32.2805C32.3905 9.18726 32.4961 9.23098 32.5739 9.3088C32.6517 9.38663 32.6955 9.49218 32.6955 9.60224L32.6959 15.3522Z" fill="#1B8DE0"/>
</svg>
