<svg width="49" height="48" viewBox="0 0 49 48" fill="none" xmlns="http://www.w3.org/2000/svg">
<path d="M24.5 48C37.7548 48 48.5 37.2548 48.5 24C48.5 10.7452 37.7548 0 24.5 0C11.2452 0 0.5 10.7452 0.5 24C0.5 37.2548 11.2452 48 24.5 48Z" fill="white"/>
<path d="M31.644 12.7495H17.3588C16.2622 12.7502 15.2107 13.1862 14.4352 13.9616C13.6598 14.737 13.2238 15.7885 13.2231 16.8852V31.1677C13.2238 32.2646 13.6597 33.3163 14.4351 34.0922C15.2104 34.8681 16.2619 35.3046 17.3588 35.306H31.644C32.7406 35.3039 33.7917 34.8671 34.5669 34.0914C35.3421 33.3157 35.7782 32.2643 35.7796 31.1677V16.8878C35.7782 15.7914 35.3421 14.7403 34.5668 13.965C33.7915 13.1897 32.7404 12.7535 31.644 12.7521V12.7495ZM24.5001 31.4522C23.0314 31.4522 21.5957 31.0167 20.3745 30.2007C19.1534 29.3848 18.2016 28.225 17.6396 26.8681C17.0775 25.5113 16.9305 24.0182 17.217 22.5777C17.5035 21.1373 18.2108 19.8141 19.2493 18.7756C20.2878 17.7371 21.6109 17.0299 23.0514 16.7434C24.4918 16.4568 25.9849 16.6039 27.3418 17.1659C28.6986 17.728 29.8584 18.6797 30.6743 19.9009C31.4903 21.1221 31.9258 22.5578 31.9258 24.0264C31.923 25.995 31.1398 27.8822 29.7478 29.2741C28.3558 30.6661 26.4686 31.4494 24.5001 31.4522ZM32.1655 18.1364C31.818 18.1364 31.4783 18.0334 31.1894 17.8403C30.9004 17.6472 30.6753 17.3728 30.5423 17.0518C30.4093 16.7307 30.3745 16.3775 30.4423 16.0366C30.5101 15.6958 30.6774 15.3827 30.9231 15.137C31.1689 14.8913 31.4819 14.724 31.8227 14.6562C32.1636 14.5884 32.5168 14.6232 32.8379 14.7562C33.1589 14.8891 33.4333 15.1143 33.6264 15.4033C33.8195 15.6922 33.9225 16.0319 33.9225 16.3794C33.9225 16.8454 33.7374 17.2923 33.4079 17.6218C33.0784 17.9513 32.6315 18.1364 32.1655 18.1364Z" fill="url(#paint0_linear_21_17227)"/>
<path d="M24.4999 19.7407C23.6516 19.7407 22.8224 19.9923 22.1171 20.4636C21.4118 20.935 20.8621 21.6049 20.5376 22.3887C20.2131 23.1724 20.1283 24.0348 20.294 24.8668C20.4597 25.6987 20.8684 26.4628 21.4684 27.0625C22.0684 27.6621 22.8328 28.0704 23.6649 28.2355C24.4969 28.4007 25.3592 28.3154 26.1428 27.9904C26.9264 27.6654 27.596 27.1154 28.0669 26.4098C28.5378 25.7042 28.7888 24.8748 28.7883 24.0265C28.7869 22.8898 28.3346 21.8001 27.5306 20.9966C26.7265 20.1931 25.6366 19.7414 24.4999 19.7407Z" fill="url(#paint1_linear_21_17227)"/>
<path d="M24.5001 0C19.7591 0 15.1245 1.40588 11.1825 4.03985C7.24049 6.67382 4.16806 10.4176 2.35375 14.7977C0.539439 19.1778 0.0647327 23.9976 0.98966 28.6475C1.91459 33.2975 4.19761 37.5687 7.55001 40.9211C10.9024 44.2735 15.1736 46.5565 19.8236 47.4815C24.4735 48.4064 29.2933 47.9317 33.6734 46.1174C38.0535 44.3031 41.7973 41.2306 44.4313 37.2886C47.0652 33.3466 48.4711 28.712 48.4711 23.971C48.4711 20.8231 47.8511 17.706 46.6464 14.7977C45.4418 11.8894 43.6761 9.24687 41.4502 7.02095C39.2242 4.79503 36.5817 3.02934 33.6734 1.82469C30.7651 0.620029 27.648 0 24.5001 0ZM38.9143 31.1676C38.9129 33.0956 38.1466 34.9443 36.7835 36.3079C35.4204 37.6715 33.572 38.4385 31.644 38.4406H17.3588C15.4306 38.4385 13.5819 37.6715 12.2184 36.3081C10.8549 34.9446 10.088 33.0959 10.0859 31.1676V16.8877C10.0886 14.9597 10.8558 13.1114 12.2191 11.748C13.5825 10.3847 15.4308 9.61754 17.3588 9.61475H31.644C33.5718 9.61754 35.4198 10.3848 36.7827 11.7482C38.1457 13.1116 38.9122 14.9599 38.9143 16.8877V31.1676Z" fill="url(#paint2_linear_21_17227)"/>
<defs>
<linearGradient id="paint0_linear_21_17227" x1="-11.3985" y1="66.8397" x2="57.6802" y2="-15.5389" gradientUnits="userSpaceOnUse">
<stop stop-color="#FBBC05"/>
<stop offset="0.25" stop-color="#EA4335"/>
<stop offset="0.5" stop-color="#FF1400"/>
<stop offset="0.79" stop-color="#0060FF"/>
<stop offset="1" stop-color="#4285F4"/>
</linearGradient>
<linearGradient id="paint1_linear_21_17227" x1="-11.3987" y1="66.8398" x2="57.68" y2="-15.5388" gradientUnits="userSpaceOnUse">
<stop stop-color="#FBBC05"/>
<stop offset="0.25" stop-color="#EA4335"/>
<stop offset="0.5" stop-color="#FF1400"/>
<stop offset="0.79" stop-color="#0060FF"/>
<stop offset="1" stop-color="#4285F4"/>
</linearGradient>
<linearGradient id="paint2_linear_21_17227" x1="-11.4301" y1="66.8107" x2="57.646" y2="-15.568" gradientUnits="userSpaceOnUse">
<stop stop-color="#FBBC05"/>
<stop offset="0.25" stop-color="#EA4335"/>
<stop offset="0.5" stop-color="#FF1400"/>
<stop offset="0.79" stop-color="#0060FF"/>
<stop offset="1" stop-color="#4285F4"/>
</linearGradient>
</defs>
</svg>
