<svg width="49" height="48" viewBox="0 0 49 48" fill="none" xmlns="http://www.w3.org/2000/svg">
<g clip-path="url(#clip0_21_17217)">
<circle cx="24.5" cy="24" r="23" fill="white"/>
<path fill-rule="evenodd" clip-rule="evenodd" d="M24.493 0C11.263 0 0.500027 10.765 0.500027 24C0.492378 29.0551 2.09287 33.9816 5.07003 38.067L2.08003 46.984L11.304 44.036C15.2179 46.6303 19.8114 48.0095 24.507 48C37.737 48 48.5 37.234 48.5 24C48.5 10.766 37.738 0 24.507 0H24.493ZM17.793 12.19C17.327 11.076 16.975 11.034 16.27 11.005C16.0024 10.988 15.7342 10.979 15.466 10.978C14.548 10.978 13.589 11.246 13.011 11.838C12.306 12.558 10.557 14.236 10.557 17.679C10.557 21.122 13.067 24.452 13.406 24.918C13.759 25.383 18.301 32.55 25.353 35.471C30.868 37.757 32.505 37.545 33.76 37.277C35.594 36.882 37.893 35.527 38.471 33.891C39.05 32.254 39.05 30.857 38.881 30.561C38.711 30.265 38.245 30.096 37.541 29.743C36.835 29.39 33.407 27.697 32.758 27.471C32.124 27.231 31.518 27.316 31.038 27.993C30.361 28.939 29.698 29.898 29.162 30.476C28.739 30.928 28.047 30.985 27.469 30.744C26.693 30.42 24.521 29.658 21.841 27.274C19.767 25.425 18.357 23.126 17.948 22.434C17.538 21.729 17.906 21.32 18.23 20.939C18.583 20.501 18.921 20.191 19.274 19.782C19.626 19.372 19.824 19.161 20.05 18.682C20.29 18.216 20.12 17.736 19.95 17.382C19.782 17.03 18.371 13.587 17.793 12.191V12.19Z" fill="#34A853"/>
</g>
<defs>
<clipPath id="clip0_21_17217">
<rect width="48" height="48" fill="white" transform="translate(0.5)"/>
</clipPath>
</defs>
</svg>
